<svg xmlns="http://www.w3.org/2000/svg" viewBox="0 0 218 70" width="436" height="140" role="img" aria-labelledby="mdxr-wordmark-title">
  <title id="mdxr-wordmark-title">mdxr</title>
  <g stroke="#18181B" fill="none" stroke-width="10" stroke-linecap="round" stroke-linejoin="round">
    <path d="M8 60V37a9 9 0 0 1 18 0V60M26 37a9 9 0 0 1 18 0V60"/>
    <circle cx="79" cy="44" r="16"/>
    <path d="M95 8V60"/>
    <path d="M112 28L140 60M140 28L112 60"/>
    <path d="M156 60V44a16 16 0 0 1 16-16H180"/>
  </g>
  <!-- sparkle: generated by an agent -->
  <path fill="#7C3AED" d="M202 4q2 10 12 12q-10 2-12 12q-2-10-12-12q10-2 12-12Z"/>
</svg>
